<?xml version="1.0" standalone="no"?>
<!DOCTYPE svg PUBLIC "-//W3C//DTD SVG 20010904//EN"
 "http://www.w3.org/TR/2001/REC-SVG-20010904/DTD/svg10.dtd">
<svg version="1.0" xmlns="http://www.w3.org/2000/svg"
 width="512.000000pt" height="512.000000pt" viewBox="0 0 512.000000 512.000000"
 preserveAspectRatio="xMidYMid meet">

<g transform="translate(0.000000,512.000000) scale(0.100000,-0.100000)"
fill="#FF6F0F" stroke="none">
<path d="M1996 4806 c-315 -136 -544 -240 -553 -252 -22 -30 -13 -1059 11
-1159 44 -185 127 -372 218 -493 26 -35 48 -66 48 -69 0 -3 -24 -3 -54 -1 -60
5 -286 103 -286 124 0 6 12 38 26 70 37 84 41 139 14 201 -12 28 -34 62 -49
77 -34 33 -351 175 -407 183 -59 8 -132 -19 -176 -65 -30 -30 -100 -179 -369
-787 -370 -836 -362 -813 -314 -910 33 -69 55 -84 250 -172 143 -65 154 -68
227 -68 69 0 80 3 119 30 27 19 55 52 77 93 18 34 39 62 45 61 7 0 50 -19 97
-42 95 -47 87 -35 128 -208 l20 -87 -50 -98 c-42 -81 -52 -109 -56 -165 -11
-158 80 -279 238 -317 l70 -17 0 -56 c0 -69 43 -162 97 -210 82 -71 196 -95
293 -62 l56 18 28 -42 c54 -84 173 -141 269 -129 29 3 63 9 78 12 20 4 27 1
37 -20 21 -47 92 -113 145 -137 39 -18 70 -23 127 -23 88 -1 144 21 209 79
l41 38 74 -38 c63 -32 82 -37 143 -37 91 0 157 28 217 92 50 53 71 97 81 163
l7 45 76 4 c88 5 138 27 194 84 48 47 77 107 85 173 l6 51 37 0 c178 0 328
174 294 341 l-11 49 52 24 c103 47 164 138 173 255 l4 66 112 46 111 46 32
-67 c37 -76 80 -113 156 -130 60 -13 82 -7 287 72 132 52 161 67 197 104 47
49 68 106 60 169 -2 22 -138 384 -301 805 -325 837 -316 819 -413 856 -65 25
-121 14 -311 -60 -155 -61 -175 -72 -211 -112 -68 -77 -74 -156 -21 -280 25
-58 28 -54 -94 -116 -65 -32 -89 -40 -135 -39 -59 0 -163 30 -162 46 1 6 24
41 53 79 99 133 174 298 220 486 20 80 22 117 25 621 4 505 3 536 -14 557 -21
25 -1083 483 -1116 481 -12 -1 -264 -105 -561 -233z m1054 -142 l481 -207 -4
-486 c-4 -540 -5 -552 -74 -726 -45 -114 -98 -205 -173 -299 l-60 -74 -52 15
c-29 8 -59 16 -66 19 -8 2 13 34 55 82 122 142 196 292 232 469 19 92 21 136
21 500 l0 400 -22 20 c-32 29 -790 353 -827 353 -36 0 -797 -324 -828 -353
l-23 -20 0 -400 c0 -363 2 -408 21 -500 37 -186 124 -354 257 -498 l61 -66
-56 -12 c-31 -6 -64 -11 -74 -11 -21 0 -124 126 -178 218 -49 84 -95 199 -123
306 -20 76 -22 111 -25 572 l-4 490 478 206 c263 113 483 207 490 207 6 1 228
-92 493 -205z m-145 -243 l340 -146 0 -380 c0 -410 -1 -424 -59 -567 -79 -195
-259 -375 -418 -419 -40 -11 -108 -36 -150 -56 l-78 -36 -87 31 c-297 107
-507 348 -568 649 -13 64 -15 142 -13 428 l3 349 340 147 c187 81 342 147 345
147 3 0 158 -66 345 -147z m-1808 -1156 c153 -68 183 -87 183 -114 0 -18 -632
-1452 -656 -1488 -22 -35 -54 -29 -208 38 -137 60 -176 86 -176 116 0 25 650
1487 667 1501 9 6 23 12 30 12 7 0 79 -29 160 -65z m3186 -47 c16 -13 586
-1469 594 -1519 3 -15 -2 -32 -11 -42 -9 -8 -86 -43 -172 -76 -140 -55 -158
-60 -181 -49 -23 11 -64 110 -319 770 -245 630 -292 761 -285 781 8 20 38 36
163 85 162 64 184 69 211 50z m-2854 -472 c64 -30 138 -60 164 -67 67 -16 207
-5 342 27 149 36 298 42 380 17 33 -10 58 -23 55 -28 -12 -22 -233 -224 -312
-285 -47 -37 -147 -107 -222 -155 -121 -78 -137 -92 -147 -125 -16 -53 6 -93
97 -179 125 -120 251 -168 409 -158 117 8 200 31 424 117 101 40 216 78 255
87 130 27 128 28 573 -224 219 -124 410 -237 426 -251 38 -36 53 -91 38 -141
-13 -45 -47 -76 -101 -92 -48 -15 -65 -7 -379 171 -244 138 -279 152 -321 130
-28 -15 -40 -61 -25 -96 10 -24 54 -53 241 -158 314 -177 339 -192 359 -222
41 -64 22 -147 -44 -191 -66 -44 -75 -41 -471 182 -230 129 -375 205 -393 205
-57 0 -98 -78 -64 -123 6 -9 147 -92 311 -185 182 -103 307 -180 319 -196 46
-63 28 -157 -36 -196 -66 -41 -99 -31 -325 96 -114 64 -223 131 -242 149 -66
61 -115 80 -214 80 l-88 1 -20 39 c-59 117 -195 188 -318 167 l-44 -7 -24 47
c-30 61 -109 132 -169 152 -26 9 -73 16 -105 16 -49 0 -58 3 -58 18 0 38 -49
119 -99 164 -67 60 -131 82 -220 76 -63 -5 -160 -42 -176 -68 -9 -15 -25 -2
-25 19 0 10 -14 46 -31 80 -35 70 -64 93 -179 142 -41 17 -79 35 -84 39 -7 7
412 979 423 980 1 0 55 -25 120 -54z m1724 -24 c62 -22 153 -55 202 -73 81
-30 100 -34 197 -34 l107 0 101 52 101 52 10 -27 c6 -15 91 -236 190 -492 100
-256 181 -469 182 -474 1 -5 -50 -31 -114 -59 l-117 -49 -43 34 c-24 18 -224
135 -445 260 -461 262 -478 269 -623 251 -88 -12 -188 -43 -416 -132 -166 -64
-257 -85 -345 -79 -78 6 -171 46 -233 100 l-39 33 93 60 c133 85 273 196 413
328 141 133 224 195 313 238 149 71 284 74 466 11z m-1675 -1292 c43 -26 76
-98 67 -143 -10 -45 -185 -346 -212 -364 -61 -40 -147 -19 -191 47 -39 58 -28
110 58 270 74 137 109 185 145 200 36 16 99 11 133 -10z m356 -259 c15 -10 37
-32 47 -47 33 -50 25 -93 -42 -227 -120 -240 -158 -303 -199 -326 -64 -36
-126 -24 -180 34 -21 23 -25 36 -25 88 1 61 4 67 119 269 69 119 128 210 140
216 35 18 108 14 140 -7z m390 -210 c35 -19 66 -75 66 -116 0 -18 -37 -101
-94 -210 -82 -157 -99 -183 -132 -202 -22 -13 -52 -23 -69 -23 -68 0 -145 69
-145 132 0 33 179 385 210 413 39 36 107 38 164 6z m376 -201 c42 -22 64 -54
75 -112 6 -31 -2 -53 -70 -184 -42 -82 -89 -161 -103 -177 -77 -81 -210 -48
-242 60 -13 41 -12 42 75 210 100 192 100 192 140 209 43 19 80 17 125 -6z
m310 -198 c94 -58 121 -120 83 -199 -35 -75 -128 -95 -212 -47 -25 15 -48 28
-50 30 -2 2 19 49 48 104 28 56 51 112 51 125 0 14 4 25 8 25 5 0 37 -17 72
-38z"/>
<path d="M2875 4151 c-24 -11 -118 -98 -235 -215 l-194 -195 -91 88 c-121 119
-181 137 -286 84 -74 -38 -112 -100 -112 -182 0 -45 6 -69 26 -102 36 -62 334
-355 379 -374 50 -20 124 -19 173 4 26 12 137 116 321 303 263 265 283 287
298 337 27 93 -3 180 -82 235 -55 39 -137 46 -197 17z m119 -163 c9 -12 16
-27 16 -32 0 -6 -123 -133 -272 -283 -181 -181 -279 -273 -293 -273 -14 0 -76
56 -178 158 -86 87 -157 163 -157 168 0 21 32 54 52 54 14 0 63 -42 138 -115
103 -102 120 -115 151 -115 31 0 51 18 259 230 235 241 252 253 284 208z"/>
<path d="M983 3155 c-38 -16 -53 -42 -53 -90 0 -51 36 -85 90 -85 54 0 90 34
90 85 0 49 -15 74 -55 91 -40 16 -32 17 -72 -1z"/>
<path d="M4107 3059 c-25 -15 -47 -70 -40 -100 14 -56 66 -86 119 -69 99 33
78 181 -25 180 -20 0 -44 -5 -54 -11z"/>
</g>
</svg>
